<svg viewBox="0 0 100 100" xmlns="http://www.w3.org/2000/svg">
  <defs>
    <linearGradient id="msgBg" x1="0%" y1="0%" x2="100%" y2="100%">
      <stop offset="0%" stop-color="#ffffff" />
      <stop offset="100%" stop-color="#f3f4f6" />
    </linearGradient>
    <linearGradient id="bubbleGrad" x1="0%" y1="0%" x2="0%" y2="100%">
      <stop offset="0%" stop-color="#34d399" />
      <stop offset="100%" stop-color="#059669" />
    </linearGradient>
    <filter id="shadow" x="-10%" y="-10%" width="120%" height="120%">
      <feDropShadow dx="0" dy="4" stdDeviation="4" flood-color="#000000" flood-opacity="0.25"/>
    </filter>
  </defs>
  <rect width="100" height="100" rx="22" fill="url(#msgBg)" filter="url(#shadow)"/>
  <path d="M 50,22 C 32,22 18,33 18,48 C 18,56 24,63 32,68 C 30,76 21,80 21,80 C 21,80 32,79 39,73 C 42,74 46,75 50,75 C 68,75 82,64 82,48 C 82,33 68,22 50,22 Z" fill="url(#bubbleGrad)"/>
  <path d="M 50,24 C 33,24 20,34 20,48 C 20,49 20,50 20.2,51 C 22,38 35,27 50,27 C 65,27 78,38 79.8,51 C 80,50 80,49 80,48 C 80,34 67,24 50,24 Z" fill="rgba(255,255,255,0.25)"/>
</svg>